{"title":"The Night Of S01E08 1080p HDTV HEVC DD5.1 x265","uid":15779752,"size":1642547755,"categoryP":"video","categoryS":"hd___tv_shows","magnet":"?xt=urn:btih:637357bca43fb77f51a4d726bf6f664715ceb272&amp;dn=The+Night+Of+S01E08+1080p+HDTV+HEVC+DD5.1+x265&amp;tr=udp%3A%2F%2Ftracker.leechers-paradise.org%3A6969&amp;tr=udp%3A%2F%2Fzer0day.ch%3A1337&amp;tr=udp%3A%2F%2Fopen.demonii.com%3A1337&amp;tr=udp%3A%2F%2Ftracker.coppersurfer.tk%3A6969&amp;tr=udp%3A%2F%2Fexodus.desync.com%3A6969","seeders":24,"leechers":2,"uploader":"nayhtut","files":1,"time":1473278035,"description":"Source: The Night Of S01E08 1080p HDTV NewStudio TV (2.69 GB)\r\n\r\nComplete name                            : The.Night.Of.S01E08.1080p.HDTV.HEVC.DD5.1.x265.mkv\r\nFormat                                   : Matroska\r\nFormat version                           : Version 4 / Version 2\r\nFile size                                : 1.53 GiB\r\nDuration                                 : 1h 34mn\r\nOverall bit rate                         : 2 308 Kbps\r\nEncoded date                             : UTC 2016-09-07 15:39:12\r\nWriting application                      : mkvmerge v9.4.0 ('Knurl') 32bit\r\nWriting library                          : libebml v1.3.4 + libmatroska v1.4.5\r\nDURATION                                 : 01:34:00.329000000\r\n\r\nVideo\r\n\r\nID                                       : 1\r\nFormat                                   : V_MPEGH/ISO/HEVC\r\nCodec ID                                 : V_MPEGH/ISO/HEVC\r\nDuration                                 : 1h 34mn\r\nBit rate                                 : 1 878 Kbps\r\nWidth                                    : 1 920 pixels\r\nHeight                                   : 1 080 pixels\r\nDisplay aspect ratio                     : 16:9\r\nFrame rate                               : 23.976 fps\r\nBits/(Pixel*Frame)                       : 0.038\r\nStream size                              : 1.24 GiB (81%)\r\nTitle                                    : The.Night.Of.S01E08.1080p.HDTV.HEVC.DD5.1.x265\r\nLanguage                                 : English\r\nDefault                                  : Yes\r\nForced                                   : Yes\r\nDURATION                                 : 01:34:52.854000000\r\n\r\nAudio\r\n\r\nID                                       : 2\r\nFormat                                   : AC-3\r\nFormat/Info                              : Audio Coding 3\r\nMode extension                           : CM (complete main)\r\nFormat settings, Endianness              : Big\r\nCodec ID                                 : A_AC3\r\nDuration                                 : 1h 34mn\r\nBit rate mode                            : Constant\r\nBit rate                                 : 384 Kbps\r\nChannel(s)                               : 6 channels\r\nChannel positions                        : Front: L C R, Side: L R, LFE\r\nSampling rate                            : 48.0 KHz\r\nBit depth                                : 16 bits\r\nCompression mode                         : Lossy\r\nStream size                              : 261 MiB (17%)\r\nTitle                                    : AC-3 5.1\r\nLanguage                                 : English\r\nDefault                                  : Yes\r\nForced                                   : No\r\n\r\nText #1\r\n\r\nID                                       : 3\r\nFormat                                   : UTF-8\r\nCodec ID                                 : S_TEXT/UTF8\r\nCodec ID/Info                            : UTF-8 Plain Text\r\nTitle                                    : English\r\nLanguage                                 : English\r\nDefault                                  : Yes\r\nForced                                   : No\r\n\r\nText #2\r\n\r\nID                                       : 4\r\nFormat                                   : UTF-8\r\nCodec ID                                 : S_TEXT/UTF8\r\nCodec ID/Info                            : UTF-8 Plain Text\r\nTitle                                    : English SDH\r\nLanguage                                 : English\r\nDefault                                  : No\r\nForced                                   : No","torrent":{"xt":"urn:btih:637357bca43fb77f51a4d726bf6f664715ceb272","amp;dn":"The+Night+Of+S01E08+1080p+HDTV+HEVC+DD5.1+x265","amp;tr":["udp%3A%2F%2Ftracker.leechers-paradise.org%3A6969","udp%3A%2F%2Fzer0day.ch%3A1337","udp%3A%2F%2Fopen.demonii.com%3A1337","udp%3A%2F%2Ftracker.coppersurfer.tk%3A6969","udp%3A%2F%2Fexodus.desync.com%3A6969"],"infoHash":"637357bca43fb77f51a4d726bf6f664715ceb272","infoHashBuffer":{"type":"Buffer","data":[99,115,87,188,164,63,183,127,81,164,215,38,191,111,102,71,21,206,178,114]},"announce":[],"urlList":[]}}